<svg width="44" height="30" viewBox="0 0 44 30" fill="none" xmlns="http://www.w3.org/2000/svg">
<g clip-path="url(#clip0_192_1011)">
<path d="M0.499344 20.7442H7.91386L4.20941 14.388L0.499344 20.7442Z" fill="url(#paint0_linear_192_1011)"/>
<path d="M7.91385 20.7442L11.6239 14.3879L7.91385 8.03171H0.499336L7.91385 20.7442Z" fill="#FF290C"/>
<path d="M22.1534 21.084C18.3953 21.084 15.2255 17.9902 15.2255 14.327C15.2255 10.6638 18.3953 7.58894 22.1534 7.58894C24.1273 7.58894 25.9305 8.42408 27.2021 9.77168L25.1712 11.5938C24.431 10.7207 23.3491 10.1323 22.1534 10.1323C19.9706 10.1323 18.1106 12.0683 18.1106 14.327C18.1106 16.6046 19.9706 18.5406 22.1534 18.5406C23.3491 18.5406 24.431 17.9522 25.1902 17.0791L27.2021 18.9012C25.9305 20.2298 24.1273 21.084 22.1534 21.084Z" fill="#252527"/>
<path d="M29.0686 20.8562V7.8167H31.8587L35.9015 15.1811L39.9253 7.8167H42.7344V20.8562H39.9253V12.7326L35.9015 20.097L31.8587 12.7326V20.8562H29.0686Z" fill="#72727A"/>
</g>
<defs>
<linearGradient id="paint0_linear_192_1011" x1="3.14136" y1="20.4548" x2="8.15597" y2="15.3902" gradientUnits="userSpaceOnUse">
<stop stop-color="#FF290C"/>
<stop offset="1" stop-color="#790002"/>
</linearGradient>
<clipPath id="clip0_192_1011">
<rect width="44" height="30" fill="white"/>
</clipPath>
</defs>
</svg>
