<svg width="46" height="26" viewBox="0 0 46 26" fill="none" xmlns="http://www.w3.org/2000/svg">
<g clip-path="url(#clip0_192_1055)">
<path d="M4.05529 18.3025C2.27329 18.3025 0.770289 16.8355 0.770289 15.0985C0.770289 13.3615 2.27329 11.9035 4.05529 11.9035C4.99129 11.9035 5.84629 12.2995 6.44929 12.9385L5.48629 13.8025C5.13529 13.3885 4.62229 13.1095 4.05529 13.1095C3.02029 13.1095 2.13829 14.0275 2.13829 15.0985C2.13829 16.1785 3.02029 17.0965 4.05529 17.0965C4.62229 17.0965 5.13529 16.8175 5.49529 16.4035L6.44929 17.2675C5.84629 17.8975 4.99129 18.3025 4.05529 18.3025ZM10.3043 18.3025C8.52231 18.3025 7.01931 16.8355 7.01931 15.0985C7.01931 13.3615 8.52231 11.9035 10.3043 11.9035C12.0863 11.9035 13.5893 13.3615 13.5893 15.0985C13.5893 16.8355 12.0863 18.3025 10.3043 18.3025ZM10.3043 17.0965C11.3483 17.0965 12.2213 16.1785 12.2213 15.0985C12.2213 14.0275 11.3483 13.1095 10.3043 13.1095C9.26931 13.1095 8.38731 14.0275 8.38731 15.0985C8.38731 16.1785 9.26931 17.0965 10.3043 17.0965ZM14.5501 18.1945V12.0115H15.8731L18.8611 16.0075V12.0115H20.1841V18.1945H18.8611L15.8731 14.1985V18.1945H14.5501ZM26.2193 13.2085H22.7903V14.5495H25.8953V15.7465H22.7903V18.1945H21.4583V12.0115H26.2193V13.2085ZM31.9674 13.2085H28.5384V14.4415H31.6434V15.6385H28.5384V16.9975H31.9674V18.1945H27.2064V12.0115H31.9674V13.2085ZM34.6701 18.1945V13.2085H32.7441V12.0115H37.9281V13.2085H35.9931V18.1945H34.6701ZM40.4181 18.1945V13.2085H38.4921V12.0115H43.6761V13.2085H41.7411V18.1945H40.4181ZM44.5911 18.1945V12.0115H45.9141V18.1945H44.5911Z" fill="#252527"/>
<path d="M3.84945 26.1945V20.0115H5.17245L7.08945 23.5035L8.99745 20.0115H10.3294V26.1945H8.99745V22.3425L7.08945 25.8345L5.17245 22.3425V26.1945H3.84945ZM16.2272 26.1945L15.7952 25.1325H13.1132L12.6812 26.1945H11.1962L13.7072 20.0115H15.2012L17.7122 26.1945H16.2272ZM13.5362 24.0975H15.3722L14.4542 21.8475L13.5362 24.0975ZM18.5799 26.1945V20.0115H19.9029L22.8909 24.0075V20.0115H24.2139V26.1945H22.8909L19.9029 22.1985V26.1945H18.5799ZM30.1051 26.1945L29.6731 25.1325H26.9911L26.5591 26.1945H25.0741L27.5851 20.0115H29.0791L31.5901 26.1945H30.1051ZM27.4141 24.0975H29.2501L28.3321 21.8475L27.4141 24.0975ZM34.755 23.7555V22.7205H37.482V25.2675C36.87 25.9155 35.916 26.3025 34.989 26.3025C33.18 26.3025 31.677 24.8535 31.677 23.0985C31.677 21.3525 33.18 19.9035 34.989 19.9035C35.916 19.9035 36.87 20.2905 37.482 20.9385L36.519 21.8025C36.159 21.3795 35.556 21.1095 34.989 21.1095C33.927 21.1095 33.045 22.0185 33.045 23.0985C33.045 24.1875 33.927 25.0965 34.989 25.0965C35.403 25.0965 35.835 24.9525 36.186 24.7095V23.7555H34.755ZM43.3009 21.2085H39.8719V22.4415H42.9769V23.6385H39.8719V24.9975H43.3009V26.1945H38.5399V20.0115H43.3009V21.2085Z" fill="#72727A"/>
<path d="M19 10.3727H25.0785L22.0415 5.16187L19 10.3727Z" fill="url(#paint0_linear_192_1055)"/>
<path d="M25.0785 10.3727L28.12 5.16183L25.0785 -0.0490417H19L25.0785 10.3727Z" fill="#FF290C"/>
</g>
<defs>
<linearGradient id="paint0_linear_192_1055" x1="21.1659" y1="10.1355" x2="25.277" y2="5.98352" gradientUnits="userSpaceOnUse">
<stop stop-color="#FF290C"/>
<stop offset="1" stop-color="#790002"/>
</linearGradient>
<clipPath id="clip0_192_1055">
<rect width="46" height="26" fill="white"/>
</clipPath>
</defs>
</svg>
