<svg width="46" height="30" viewBox="0 0 46 30" fill="none" xmlns="http://www.w3.org/2000/svg">
<g clip-path="url(#clip0_192_1055)">
<path d="M4.05529 19.3025C2.27329 19.3025 0.770289 17.8355 0.770289 16.0985C0.770289 14.3615 2.27329 12.9035 4.05529 12.9035C4.99129 12.9035 5.84629 13.2995 6.44929 13.9385L5.48629 14.8025C5.13529 14.3885 4.62229 14.1095 4.05529 14.1095C3.02029 14.1095 2.13829 15.0275 2.13829 16.0985C2.13829 17.1785 3.02029 18.0965 4.05529 18.0965C4.62229 18.0965 5.13529 17.8175 5.49529 17.4035L6.44929 18.2675C5.84629 18.8975 4.99129 19.3025 4.05529 19.3025ZM10.3043 19.3025C8.52231 19.3025 7.01931 17.8355 7.01931 16.0985C7.01931 14.3615 8.52231 12.9035 10.3043 12.9035C12.0863 12.9035 13.5893 14.3615 13.5893 16.0985C13.5893 17.8355 12.0863 19.3025 10.3043 19.3025ZM10.3043 18.0965C11.3483 18.0965 12.2213 17.1785 12.2213 16.0985C12.2213 15.0275 11.3483 14.1095 10.3043 14.1095C9.26931 14.1095 8.38731 15.0275 8.38731 16.0985C8.38731 17.1785 9.26931 18.0965 10.3043 18.0965ZM14.5501 19.1945V13.0115H15.8731L18.8611 17.0075V13.0115H20.1841V19.1945H18.8611L15.8731 15.1985V19.1945H14.5501ZM26.2193 14.2085H22.7903V15.5495H25.8953V16.7465H22.7903V19.1945H21.4583V13.0115H26.2193V14.2085ZM31.9674 14.2085H28.5384V15.4415H31.6434V16.6385H28.5384V17.9975H31.9674V19.1945H27.2064V13.0115H31.9674V14.2085ZM34.6701 19.1945V14.2085H32.7441V13.0115H37.9281V14.2085H35.9931V19.1945H34.6701ZM40.4181 19.1945V14.2085H38.4921V13.0115H43.6761V14.2085H41.7411V19.1945H40.4181ZM44.5911 19.1945V13.0115H45.9141V19.1945H44.5911Z" fill="#252527"/>
<path d="M3.84945 28.1945V22.0115H5.17245L7.08945 25.5035L8.99745 22.0115H10.3294V28.1945H8.99745V24.3425L7.08945 27.8345L5.17245 24.3425V28.1945H3.84945ZM16.2272 28.1945L15.7952 27.1325H13.1132L12.6812 28.1945H11.1962L13.7072 22.0115H15.2012L17.7122 28.1945H16.2272ZM13.5362 26.0975H15.3722L14.4542 23.8475L13.5362 26.0975ZM18.5799 28.1945V22.0115H19.9029L22.8909 26.0075V22.0115H24.2139V28.1945H22.8909L19.9029 24.1985V28.1945H18.5799ZM30.1051 28.1945L29.6731 27.1325H26.9911L26.5591 28.1945H25.0741L27.5851 22.0115H29.0791L31.5901 28.1945H30.1051ZM27.4141 26.0975H29.2501L28.3321 23.8475L27.4141 26.0975ZM34.755 25.7555V24.7205H37.482V27.2675C36.87 27.9155 35.916 28.3025 34.989 28.3025C33.18 28.3025 31.677 26.8535 31.677 25.0985C31.677 23.3525 33.18 21.9035 34.989 21.9035C35.916 21.9035 36.87 22.2905 37.482 22.9385L36.519 23.8025C36.159 23.3795 35.556 23.1095 34.989 23.1095C33.927 23.1095 33.045 24.0185 33.045 25.0985C33.045 26.1875 33.927 27.0965 34.989 27.0965C35.403 27.0965 35.835 26.9525 36.186 26.7095V25.7555H34.755ZM43.3009 23.2085H39.8719V24.4415H42.9769V25.6385H39.8719V26.9975H43.3009V28.1945H38.5399V22.0115H43.3009V23.2085Z" fill="#72727A"/>
<path d="M19 11.3727H25.0785L22.0415 6.16187L19 11.3727Z" fill="url(#paint0_linear_192_1055)"/>
<path d="M25.0785 11.3727L28.12 6.16183L25.0785 0.950958H19L25.0785 11.3727Z" fill="#FF290C"/>
</g>
<defs>
<linearGradient id="paint0_linear_192_1055" x1="21.1659" y1="11.1355" x2="25.277" y2="6.98352" gradientUnits="userSpaceOnUse">
<stop stop-color="#FF290C"/>
<stop offset="1" stop-color="#790002"/>
</linearGradient>
<clipPath id="clip0_192_1055">
<rect width="46" height="30" fill="white"/>
</clipPath>
</defs>
</svg>
