<svg width="138" height="44" viewBox="0 0 138 44" fill="none" xmlns="http://www.w3.org/2000/svg">
<rect x="0.5" y="0.5" width="137" height="43" rx="3.5" fill="#53215B"/>
<rect x="0.5" y="0.5" width="137" height="43" rx="3.5" stroke="url(#paint0_linear_13_1221)"/>
<path d="M18.8616 24.1108C18.8616 25.0359 18.1059 25.7916 17.1808 25.7916C16.2557 25.7916 15.5 25.0359 15.5 24.1108C15.5 23.1857 16.2557 22.43 17.1808 22.43H18.8616V24.1108Z" fill="#E01E5A"/>
<path d="M19.7085 24.1108C19.7085 23.1857 20.4642 22.43 21.3893 22.43C22.3144 22.43 23.0701 23.1857 23.0701 24.1108V28.3192C23.0701 29.2443 22.3144 30 21.3893 30C20.4642 30 19.7085 29.2443 19.7085 28.3192V24.1108Z" fill="#E01E5A"/>
<path d="M21.3893 17.3616C20.4642 17.3616 19.7085 16.6059 19.7085 15.6808C19.7085 14.7557 20.4642 14 21.3893 14C22.3144 14 23.0701 14.7557 23.0701 15.6808V17.3616H21.3893Z" fill="#36C5F0"/>
<path d="M21.3893 18.2085C22.3143 18.2085 23.07 18.9642 23.07 19.8893C23.07 20.8144 22.3143 21.5701 21.3893 21.5701H17.1808C16.2557 21.5701 15.5 20.8144 15.5 19.8893C15.5 18.9642 16.2557 18.2085 17.1808 18.2085H21.3893Z" fill="#36C5F0"/>
<path d="M28.1385 19.8893C28.1385 18.9642 28.8942 18.2085 29.8193 18.2085C30.7444 18.2085 31.5001 18.9642 31.5001 19.8893C31.5001 20.8144 30.7444 21.5701 29.8193 21.5701H28.1385V19.8893Z" fill="#2EB67D"/>
<path d="M27.2916 19.8893C27.2916 20.8143 26.5359 21.57 25.6108 21.57C24.6857 21.57 23.93 20.8143 23.93 19.8893V15.6808C23.93 14.7557 24.6857 14 25.6108 14C26.5359 14 27.2916 14.7557 27.2916 15.6808V19.8893Z" fill="#2EB67D"/>
<path d="M25.6108 26.6385C26.5359 26.6385 27.2916 27.3942 27.2916 28.3193C27.2916 29.2444 26.5359 30.0001 25.6108 30.0001C24.6857 30.0001 23.93 29.2444 23.93 28.3193V26.6385H25.6108Z" fill="#ECB22E"/>
<path d="M25.6108 25.7916C24.6857 25.7916 23.93 25.0359 23.93 24.1108C23.93 23.1857 24.6857 22.43 25.6108 22.43H29.8192C30.7443 22.43 31.5 23.1857 31.5 24.1108C31.5 25.0359 30.7443 25.7916 29.8192 25.7916H25.6108Z" fill="#ECB22E"/>
<path d="M52.9013 17.3182V27.5H51.0419L46.6122 21.0916H46.5376V27.5H44.3849V17.3182H46.2741L50.669 23.7216H50.7585V17.3182H52.9013ZM58.1202 27.6491C57.3347 27.6491 56.6586 27.4901 56.0918 27.1719C55.5283 26.8504 55.0942 26.3963 54.7892 25.8097C54.4843 25.2197 54.3319 24.522 54.3319 23.7166C54.3319 22.9311 54.4843 22.2417 54.7892 21.6484C55.0942 21.0552 55.5234 20.5928 56.0769 20.2614C56.6337 19.9299 57.2866 19.7642 58.0357 19.7642C58.5395 19.7642 59.0085 19.8454 59.4426 20.0078C59.8801 20.1669 60.2613 20.4072 60.5861 20.7287C60.9142 21.0502 61.1694 21.4545 61.3517 21.9418C61.534 22.4257 61.6252 22.9924 61.6252 23.642V24.2237H55.177V22.9112H59.6316C59.6316 22.6063 59.5653 22.3362 59.4327 22.1009C59.3001 21.8655 59.1162 21.6816 58.8809 21.549C58.6489 21.4131 58.3787 21.3452 58.0705 21.3452C57.749 21.3452 57.464 21.4197 57.2154 21.5689C56.9701 21.7147 56.7779 21.9119 56.6387 22.1605C56.4995 22.4058 56.4282 22.6792 56.4249 22.9808V24.2287C56.4249 24.6065 56.4945 24.933 56.6337 25.2081C56.7762 25.4832 56.9767 25.6953 57.2353 25.8445C57.4938 25.9936 57.8004 26.0682 58.155 26.0682C58.3903 26.0682 58.6058 26.035 58.8013 25.9688C58.9969 25.9025 59.1642 25.803 59.3034 25.6705C59.4426 25.5379 59.5487 25.3755 59.6216 25.1832L61.5804 25.3125C61.481 25.7831 61.2772 26.1941 60.9689 26.5455C60.664 26.8935 60.2696 27.1652 59.7857 27.3608C59.3051 27.553 58.7499 27.6491 58.1202 27.6491ZM66.4874 27.6491C65.7019 27.6491 65.0257 27.4901 64.459 27.1719C63.8955 26.8504 63.4614 26.3963 63.1564 25.8097C62.8515 25.2197 62.699 24.522 62.699 23.7166C62.699 22.9311 62.8515 22.2417 63.1564 21.6484C63.4614 21.0552 63.8906 20.5928 64.4441 20.2614C65.0009 19.9299 65.6538 19.7642 66.4029 19.7642C66.9067 19.7642 67.3757 19.8454 67.8098 20.0078C68.2473 20.1669 68.6285 20.4072 68.9533 20.7287C69.2814 21.0502 69.5366 21.4545 69.7189 21.9418C69.9012 22.4257 69.9924 22.9924 69.9924 23.642V24.2237H63.5442V22.9112H67.9988C67.9988 22.6063 67.9325 22.3362 67.7999 22.1009C67.6673 21.8655 67.4834 21.6816 67.248 21.549C67.016 21.4131 66.7459 21.3452 66.4377 21.3452C66.1162 21.3452 65.8311 21.4197 65.5826 21.5689C65.3373 21.7147 65.1451 21.9119 65.0059 22.1605C64.8667 22.4058 64.7954 22.6792 64.7921 22.9808V24.2287C64.7921 24.6065 64.8617 24.933 65.0009 25.2081C65.1434 25.4832 65.3439 25.6953 65.6025 25.8445C65.861 25.9936 66.1676 26.0682 66.5222 26.0682C66.7575 26.0682 66.973 26.035 67.1685 25.9688C67.3641 25.9025 67.5314 25.803 67.6706 25.6705C67.8098 25.5379 67.9159 25.3755 67.9888 25.1832L69.9476 25.3125C69.8482 25.7831 69.6444 26.1941 69.3361 26.5455C69.0312 26.8935 68.6368 27.1652 68.1529 27.3608C67.6723 27.553 67.1171 27.6491 66.4874 27.6491ZM74.1884 27.6243C73.6084 27.6243 73.083 27.4751 72.6124 27.1768C72.1451 26.8752 71.7739 26.4328 71.4988 25.8494C71.227 25.2628 71.0911 24.5436 71.0911 23.6918C71.0911 22.8168 71.2319 22.0893 71.5137 21.5092C71.7954 20.9259 72.1699 20.4901 72.6373 20.2017C73.1079 19.91 73.6233 19.7642 74.1834 19.7642C74.611 19.7642 74.9673 19.8371 75.2523 19.983C75.5407 20.1255 75.7727 20.3045 75.9483 20.5199C76.1273 20.732 76.2632 20.9408 76.356 21.1463H76.4206V17.3182H78.5336V27.5H76.4455V26.277H76.356C76.2566 26.4891 76.1157 26.6996 75.9334 26.9084C75.7544 27.1139 75.5208 27.2846 75.2324 27.4205C74.9474 27.5563 74.5994 27.6243 74.1884 27.6243ZM74.8596 25.9389C75.2009 25.9389 75.4893 25.8461 75.7246 25.6605C75.9632 25.4716 76.1455 25.2081 76.2715 24.87C76.4007 24.532 76.4654 24.1359 76.4654 23.6818C76.4654 23.2277 76.4024 22.8333 76.2765 22.4986C76.1505 22.1638 75.9682 21.9053 75.7296 21.723C75.4909 21.5407 75.2009 21.4496 74.8596 21.4496C74.5115 21.4496 74.2182 21.544 73.9796 21.733C73.7409 21.9219 73.5603 22.1837 73.4377 22.5185C73.315 22.8532 73.2537 23.241 73.2537 23.6818C73.2537 24.1259 73.315 24.5187 73.4377 24.8601C73.5636 25.1982 73.7443 25.4633 73.9796 25.6555C74.2182 25.8445 74.5115 25.9389 74.8596 25.9389ZM83.5549 27.5V17.3182H85.7076V21.5192H90.0776V17.3182H92.2253V27.5H90.0776V23.294H85.7076V27.5H83.5549ZM97.4405 27.6491C96.655 27.6491 95.9789 27.4901 95.4121 27.1719C94.8487 26.8504 94.4145 26.3963 94.1096 25.8097C93.8046 25.2197 93.6522 24.522 93.6522 23.7166C93.6522 22.9311 93.8046 22.2417 94.1096 21.6484C94.4145 21.0552 94.8437 20.5928 95.3972 20.2614C95.954 19.9299 96.6069 19.7642 97.356 19.7642C97.8598 19.7642 98.3288 19.8454 98.763 20.0078C99.2005 20.1669 99.5816 20.4072 99.9064 20.7287C100.235 21.0502 100.49 21.4545 100.672 21.9418C100.854 22.4257 100.945 22.9924 100.945 23.642V24.2237H94.4973V22.9112H98.9519C98.9519 22.6063 98.8856 22.3362 98.753 22.1009C98.6204 21.8655 98.4365 21.6816 98.2012 21.549C97.9692 21.4131 97.699 21.3452 97.3908 21.3452C97.0693 21.3452 96.7843 21.4197 96.5357 21.5689C96.2904 21.7147 96.0982 21.9119 95.959 22.1605C95.8198 22.4058 95.7485 22.6792 95.7452 22.9808V24.2287C95.7452 24.6065 95.8148 24.933 95.954 25.2081C96.0965 25.4832 96.2971 25.6953 96.5556 25.8445C96.8141 25.9936 97.1207 26.0682 97.4753 26.0682C97.7106 26.0682 97.9261 26.035 98.1216 25.9688C98.3172 25.9025 98.4846 25.803 98.6238 25.6705C98.763 25.5379 98.869 25.3755 98.9419 25.1832L100.901 25.3125C100.801 25.7831 100.597 26.1941 100.289 26.5455C99.9843 26.8935 99.5899 27.1652 99.106 27.3608C98.6254 27.553 98.0703 27.6491 97.4405 27.6491ZM104.445 17.3182V27.5H102.328V17.3182H104.445ZM106.142 30.3636V19.8636H108.23V21.1463H108.325C108.417 20.9408 108.552 20.732 108.727 20.5199C108.906 20.3045 109.138 20.1255 109.423 19.983C109.712 19.8371 110.07 19.7642 110.497 19.7642C111.054 19.7642 111.568 19.91 112.038 20.2017C112.509 20.4901 112.885 20.9259 113.167 21.5092C113.449 22.0893 113.589 22.8168 113.589 23.6918C113.589 24.5436 113.452 25.2628 113.177 25.8494C112.905 26.4328 112.534 26.8752 112.063 27.1768C111.596 27.4751 111.072 27.6243 110.492 27.6243C110.081 27.6243 109.732 27.5563 109.443 27.4205C109.158 27.2846 108.924 27.1139 108.742 26.9084C108.56 26.6996 108.421 26.4891 108.325 26.277H108.26V30.3636H106.142ZM108.215 23.6818C108.215 24.1359 108.278 24.532 108.404 24.87C108.53 25.2081 108.712 25.4716 108.951 25.6605C109.19 25.8461 109.48 25.9389 109.821 25.9389C110.166 25.9389 110.457 25.8445 110.696 25.6555C110.935 25.4633 111.115 25.1982 111.238 24.8601C111.364 24.5187 111.427 24.1259 111.427 23.6818C111.427 23.241 111.366 22.8532 111.243 22.5185C111.12 22.1837 110.94 21.9219 110.701 21.733C110.462 21.544 110.169 21.4496 109.821 21.4496C109.476 21.4496 109.185 21.5407 108.946 21.723C108.711 21.9053 108.53 22.1638 108.404 22.4986C108.278 22.8333 108.215 23.2277 108.215 23.6818ZM116.821 24.4474V24.2784C116.824 23.6984 116.876 23.236 116.975 22.8913C117.078 22.5466 117.227 22.2682 117.423 22.0561C117.618 21.844 117.853 21.6518 118.129 21.4794C118.334 21.3468 118.518 21.2093 118.68 21.0668C118.843 20.9242 118.972 20.7668 119.068 20.5945C119.164 20.4188 119.212 20.2232 119.212 20.0078C119.212 19.7791 119.158 19.5786 119.048 19.4062C118.939 19.2339 118.791 19.1013 118.606 19.0085C118.424 18.9157 118.221 18.8693 117.999 18.8693C117.784 18.8693 117.58 18.9174 117.388 19.0135C117.196 19.1063 117.038 19.2455 116.915 19.4311C116.793 19.6134 116.727 19.8404 116.717 20.1122H114.688C114.705 19.4493 114.864 18.9025 115.165 18.4716C115.467 18.0374 115.866 17.7143 116.364 17.5021C116.861 17.2867 117.409 17.179 118.009 17.179C118.669 17.179 119.252 17.2884 119.759 17.5071C120.266 17.7225 120.664 18.0357 120.952 18.4467C121.241 18.8577 121.385 19.3532 121.385 19.9332C121.385 20.321 121.32 20.6657 121.191 20.9673C121.065 21.2656 120.888 21.5308 120.659 21.7628C120.43 21.9915 120.16 22.1986 119.849 22.3842C119.587 22.54 119.371 22.7024 119.202 22.8714C119.037 23.0405 118.912 23.236 118.83 23.4581C118.75 23.6802 118.709 23.9536 118.705 24.2784V24.4474H116.821ZM117.805 27.6293C117.474 27.6293 117.191 27.5133 116.955 27.2812C116.723 27.0459 116.609 26.7642 116.612 26.4361C116.609 26.1113 116.723 25.8329 116.955 25.6009C117.191 25.3688 117.474 25.2528 117.805 25.2528C118.12 25.2528 118.397 25.3688 118.636 25.6009C118.874 25.8329 118.995 26.1113 118.999 26.4361C118.995 26.6548 118.937 26.8554 118.825 27.0376C118.715 27.2166 118.571 27.3608 118.392 27.4702C118.213 27.5762 118.018 27.6293 117.805 27.6293Z" fill="white"/>
<defs>
<linearGradient id="paint0_linear_13_1221" x1="99.236" y1="-11.5" x2="88.4365" y2="43.1684" gradientUnits="userSpaceOnUse">
<stop offset="0.0308731" stop-color="#DDDDDD"/>
<stop offset="1" stop-color="#777777"/>
</linearGradient>
</defs>
</svg>
