<svg width="357" height="368" viewBox="0 0 357 368" fill="none" xmlns="http://www.w3.org/2000/svg">
<g clip-path="url(#clip0_189_1384)">
<rect width="357" height="369" fill="white"/>
<g clip-path="url(#clip1_189_1384)">
<path fill-rule="evenodd" clip-rule="evenodd" d="M220.984 258.715L217.725 255.326C217.575 255.19 217.388 255.1 217.188 255.068C216.988 255.036 216.782 255.063 216.597 255.145C216.412 255.227 216.254 255.361 216.143 255.531C216.033 255.701 215.974 255.9 215.974 256.103L215.974 263.13C215.975 263.332 216.034 263.53 216.144 263.699C216.255 263.868 216.412 264.002 216.596 264.084C216.781 264.166 216.986 264.193 217.185 264.162C217.385 264.13 217.571 264.042 217.722 263.907L220.984 260.518C221.109 260.403 221.21 260.264 221.278 260.109C221.347 259.954 221.382 259.786 221.382 259.616C221.382 259.447 221.347 259.279 221.278 259.123C221.21 258.968 221.109 258.829 220.984 258.715Z" fill="#FFB09E"/>
</g>
<g clip-path="url(#clip2_189_1384)">
<path fill-rule="evenodd" clip-rule="evenodd" d="M220.984 274.683L217.725 271.293C217.575 271.157 217.388 271.068 217.188 271.036C216.988 271.004 216.782 271.03 216.597 271.113C216.412 271.195 216.254 271.329 216.143 271.499C216.033 271.669 215.974 271.868 215.974 272.07L215.974 279.097C215.975 279.3 216.034 279.497 216.144 279.667C216.255 279.836 216.412 279.97 216.596 280.052C216.781 280.134 216.986 280.161 217.185 280.13C217.385 280.098 217.571 280.009 217.722 279.874L220.984 276.485C221.109 276.371 221.21 276.232 221.278 276.077C221.347 275.921 221.382 275.754 221.382 275.584C221.382 275.414 221.347 275.246 221.278 275.091C221.21 274.936 221.109 274.797 220.984 274.683Z" fill="#FFB09E"/>
</g>
<path fill-rule="evenodd" clip-rule="evenodd" d="M221.641 307.835L225.03 304.576C225.166 304.426 225.256 304.239 225.288 304.039C225.32 303.839 225.293 303.633 225.211 303.448C225.129 303.263 224.994 303.105 224.824 302.994C224.654 302.884 224.456 302.825 224.253 302.825H217.226C217.024 302.825 216.826 302.885 216.657 302.995C216.487 303.105 216.354 303.262 216.271 303.447C216.189 303.632 216.162 303.837 216.194 304.036C216.226 304.236 216.314 304.422 216.449 304.573L219.838 307.835C219.952 307.96 220.092 308.061 220.247 308.129C220.402 308.198 220.57 308.233 220.74 308.233C220.909 308.233 221.077 308.198 221.232 308.129C221.388 308.061 221.527 307.96 221.641 307.835Z" fill="#FFB09E"/>
<rect x="228.986" y="257.175" width="53.9171" height="5.47465" rx="2.73733" fill="#FFD1C8"/>
<rect x="228.986" y="273.525" width="63.4147" height="5.47465" rx="2.73733" fill="#FFD1C8"/>
<rect x="323.424" y="229.212" width="26.4608" height="5.47465" rx="2.73733" fill="#FFD1C8"/>
<rect x="305.631" y="229.212" width="15.9677" height="5.47465" rx="2.73733" fill="#FFD1C8"/>
<rect x="229.899" y="303.018" width="72.0829" height="5.47465" rx="2.73733" fill="#FFD1C8"/>
<rect x="208.912" y="202.912" width="146.447" height="113.143" rx="5.93088" stroke="#FFB09E" stroke-width="1.82488"/>
<rect x="212.106" y="206.857" width="137.779" height="19.1613" rx="9.58064" fill="#FFD1C8"/>
<rect x="209.825" y="239.088" width="144.622" height="10.4931" fill="#FFD1C8"/>
<rect x="209.825" y="285.843" width="144.622" height="10.4931" fill="#FFD1C8"/>
<path d="M0 13.9508C0 6.24598 6.24596 0 13.9507 0H127.882V472H13.9507C6.24595 472 0 465.754 0 458.049V13.9508Z" fill="#024696"/>
<path d="M36.0394 22.0887C36.0394 20.1625 37.6009 18.601 39.5271 18.601H73.2414C75.1676 18.601 76.7291 20.1625 76.7291 22.0887C76.7291 24.0149 75.1676 25.5764 73.2414 25.5764H39.5271C37.6009 25.5764 36.0394 24.0149 36.0394 22.0887Z" fill="#7CB7FD"/>
<rect x="36.0394" y="30.2266" width="73.2414" height="6.97537" rx="3.48768" fill="#7CB7FD"/>
<rect x="12.2069" y="46.5024" width="104.049" height="24.4138" rx="12.2069" fill="#00264D"/>
<rect width="127.3" height="95.9113" transform="translate(0.581299 204.03)" fill="#00264D"/>
<path d="M30.8079 239.488C30.8079 237.561 32.3694 236 34.2955 236H90.6798C92.606 236 94.1675 237.561 94.1675 239.488C94.1675 241.414 92.606 242.975 90.6798 242.975H34.2955C32.3694 242.975 30.8079 241.414 30.8079 239.488Z" fill="#7CB7FD"/>
<path d="M30.8079 259.251C30.8079 257.325 32.3694 255.764 34.2955 255.764H90.6798C92.606 255.764 94.1675 257.325 94.1675 259.251C94.1675 261.177 92.606 262.739 90.6798 262.739H34.2955C32.3694 262.739 30.8079 261.177 30.8079 259.251Z" fill="#7CB7FD"/>
<path d="M30.8079 279.015C30.8079 277.089 32.3694 275.527 34.2955 275.527H90.6798C92.606 275.527 94.1675 277.089 94.1675 279.015C94.1675 280.941 92.606 282.502 90.6798 282.502H34.2955C32.3694 282.502 30.8079 280.941 30.8079 279.015Z" fill="#7CB7FD"/>
<circle cx="21.2167" cy="315.345" r="6.10345" fill="white"/>
<path d="M33.7142 315.345C33.7142 313.419 35.2757 311.857 37.2019 311.857H93.5862C95.5123 311.857 97.0738 313.419 97.0738 315.345C97.0738 317.271 95.5123 318.832 93.5862 318.832H37.2019C35.2757 318.832 33.7142 317.271 33.7142 315.345Z" fill="#7CB7FD"/>
<circle cx="21.2167" cy="341.502" r="6.10345" fill="white"/>
<path d="M33.7142 341.502C33.7142 339.576 35.2757 338.015 37.2019 338.015H93.5862C95.5123 338.015 97.0738 339.576 97.0738 341.502C97.0738 343.429 95.5123 344.99 93.5862 344.99H37.2019C35.2757 344.99 33.7142 343.429 33.7142 341.502Z" fill="#7CB7FD"/>
<circle cx="21.798" cy="27.6108" r="9.59113" fill="white"/>
<circle cx="18.3104" cy="88.064" r="6.10345" fill="white"/>
<path d="M30.8079 88.064C30.8079 86.1378 32.3694 84.5764 34.2955 84.5764H90.6798C92.606 84.5764 94.1675 86.1378 94.1675 88.064C94.1675 89.9902 92.606 91.5517 90.6798 91.5517H34.2955C32.3694 91.5517 30.8079 89.9902 30.8079 88.064Z" fill="#7CB7FD"/>
<circle cx="18.3104" cy="114.222" r="6.10345" fill="white"/>
<path d="M30.8079 114.222C30.8079 112.295 32.3694 110.734 34.2955 110.734H90.6798C92.606 110.734 94.1675 112.295 94.1675 114.222C94.1675 116.148 92.606 117.709 90.6798 117.709H34.2955C32.3694 117.709 30.8079 116.148 30.8079 114.222Z" fill="#7CB7FD"/>
<circle cx="18.3104" cy="140.379" r="6.10345" fill="white"/>
<path d="M30.8079 140.379C30.8079 138.453 32.3694 136.892 34.2955 136.892H90.6798C92.606 136.892 94.1675 138.453 94.1675 140.379C94.1675 142.305 92.606 143.867 90.6798 143.867H34.2955C32.3694 143.867 30.8079 142.305 30.8079 140.379Z" fill="#7CB7FD"/>
<circle cx="18.3104" cy="166.537" r="6.10345" fill="white"/>
<path d="M30.8079 166.537C30.8079 164.611 32.3694 163.049 34.2955 163.049H90.6798C92.606 163.049 94.1675 164.611 94.1675 166.537C94.1675 168.463 92.606 170.025 90.6798 170.025H34.2955C32.3694 170.025 30.8079 168.463 30.8079 166.537Z" fill="#7CB7FD"/>
<circle cx="18.3104" cy="192.695" r="6.10345" fill="white"/>
<path d="M30.8079 192.695C30.8079 190.768 32.3694 189.207 34.2955 189.207H90.6798C92.606 189.207 94.1675 190.768 94.1675 192.695C94.1675 194.621 92.606 196.182 90.6798 196.182H34.2955C32.3694 196.182 30.8079 194.621 30.8079 192.695Z" fill="#7CB7FD"/>
<circle cx="18.3104" cy="218.852" r="6.10345" fill="white"/>
<path d="M30.8079 218.852C30.8079 216.926 32.3694 215.365 34.2955 215.365H90.6798C92.606 215.365 94.1675 216.926 94.1675 218.852C94.1675 220.778 92.606 222.34 90.6798 222.34H34.2955C32.3694 222.34 30.8079 220.778 30.8079 218.852Z" fill="#7CB7FD"/>
<rect x="226.728" y="8.29846" width="11.9091" height="5.71636" rx="2.85818" fill="#FFE1DC"/>
<rect x="246.258" y="8.29846" width="11.4327" height="5.71636" rx="2.85818" fill="#FFE1DC"/>
<rect x="265.789" y="8.29846" width="11.4327" height="5.71636" rx="2.85818" fill="#FFE1DC"/>
<rect x="284.844" y="8.29846" width="11.9091" height="5.71636" rx="2.85818" fill="#FFE1DC"/>
<rect x="304.375" y="8.29846" width="11.9091" height="5.71636" rx="2.85818" fill="#FFE1DC"/>
<rect x="323.906" y="8.29846" width="11.4327" height="5.71636" rx="2.85818" fill="#FFE1DC"/>
<rect x="343.437" y="8.29846" width="11.4327" height="5.71636" rx="2.85818" fill="#FFE1DC"/>
<ellipse cx="232.682" cy="84.5167" rx="7.38364" ry="7.14545" fill="#FFB09E"/>
<ellipse cx="232.682" cy="131.915" rx="7.38364" ry="7.38363" fill="#FFB09E"/>
<ellipse cx="232.682" cy="60.6985" rx="7.38364" ry="7.14546" fill="#FFB09E"/>
<ellipse cx="232.682" cy="108.097" rx="7.38364" ry="7.38364" fill="#FFB09E"/>
<ellipse cx="251.975" cy="84.5167" rx="7.14545" ry="7.14545" fill="#FFB09E"/>
<ellipse cx="251.975" cy="131.915" rx="7.14545" ry="7.38363" fill="#FFB09E"/>
<ellipse cx="251.975" cy="60.6985" rx="7.14545" ry="7.14546" fill="#FFB09E"/>
<ellipse cx="251.975" cy="108.097" rx="7.14545" ry="7.38364" fill="#FFB09E"/>
<ellipse cx="271.506" cy="36.8803" rx="7.14545" ry="7.14545" fill="#FFB09E"/>
<ellipse cx="271.506" cy="84.5167" rx="7.14545" ry="7.14545" fill="#FFB09E"/>
<ellipse cx="271.506" cy="131.915" rx="7.14545" ry="7.38363" fill="#FFB09E"/>
<ellipse cx="271.506" cy="60.6985" rx="7.14545" ry="7.14546" fill="#FFB09E"/>
<ellipse cx="271.506" cy="108.097" rx="7.14545" ry="7.38364" fill="#FFB09E"/>
<ellipse cx="290.798" cy="36.8803" rx="7.38363" ry="7.14545" fill="#FFB09E"/>
<ellipse cx="290.798" cy="84.5167" rx="7.38363" ry="7.14545" fill="#ED4C4B"/>
<circle cx="290.798" cy="131.915" r="7.38363" fill="#FFB09E"/>
<ellipse cx="290.798" cy="60.6985" rx="7.38363" ry="7.14546" fill="#FFB09E"/>
<ellipse cx="290.798" cy="108.097" rx="7.38363" ry="7.38364" fill="#FFB09E"/>
<ellipse cx="310.329" cy="36.8803" rx="7.38363" ry="7.14545" fill="#FFB09E"/>
<ellipse cx="310.329" cy="84.5167" rx="7.38363" ry="7.14545" fill="#FFB09E"/>
<ellipse cx="310.329" cy="60.6985" rx="7.38363" ry="7.14546" fill="#FFB09E"/>
<ellipse cx="310.329" cy="108.097" rx="7.38363" ry="7.38364" fill="#FFB09E"/>
<ellipse cx="329.622" cy="36.8803" rx="7.14546" ry="7.14545" fill="#FFB09E"/>
<ellipse cx="329.622" cy="84.5167" rx="7.14546" ry="7.14545" fill="#FFB09E"/>
<ellipse cx="329.622" cy="60.6985" rx="7.14546" ry="7.14546" fill="#FFB09E"/>
<ellipse cx="329.622" cy="108.097" rx="7.14546" ry="7.38364" fill="#FFB09E"/>
<ellipse cx="349.153" cy="36.8803" rx="7.14546" ry="7.14545" fill="#FFB09E"/>
<ellipse cx="349.153" cy="84.5167" rx="7.14546" ry="7.14545" fill="#FFB09E"/>
<ellipse cx="349.153" cy="60.6985" rx="7.14546" ry="7.14546" fill="#FFB09E"/>
<ellipse cx="349.153" cy="108.097" rx="7.14546" ry="7.38364" fill="#FFB09E"/>
<rect x="149" y="159.723" width="105" height="24.2308" rx="4.84615" fill="#ED4C4B"/>
<rect x="177.446" y="169.738" width="48.4615" height="3.87692" rx="1.93846" fill="white"/>
<g clip-path="url(#clip3_189_1384)">
<rect x="162" y="76" width="30" height="14.8571" rx="7.42857" fill="#FFE1DC"/>
<rect x="162" y="76" width="14.8571" height="14.8571" rx="7.42857" fill="#ED4C4B"/>
</g>
<g opacity="0.6">
<rect x="162.332" y="331.268" width="29.8492" height="8.38461" rx="4.19231" fill="#FF8A75"/>
<rect x="162.332" y="344.012" width="43.6" height="8.38461" rx="4.19231" fill="#FF8A75"/>
<rect x="211.298" y="344.012" width="19.7877" height="8.38461" rx="4.19231" fill="#FFE1DC"/>
<rect x="236.117" y="344.012" width="35.2154" height="8.38461" rx="4.19231" fill="#FFE1DC"/>
<rect x="196.877" y="331.268" width="19.7877" height="8.38461" rx="4.19231" fill="#FF8A75"/>
<rect x="221.36" y="331.268" width="49.9723" height="8.38461" rx="4.19231" fill="#FF8A75"/>
<g clip-path="url(#clip4_189_1384)">
<path fill-rule="evenodd" clip-rule="evenodd" d="M267.342 333.837L266.433 334.745L265.524 333.836C265.476 333.786 265.419 333.746 265.355 333.719C265.292 333.692 265.223 333.677 265.154 333.676C265.085 333.676 265.017 333.689 264.953 333.715C264.889 333.741 264.83 333.78 264.782 333.829C264.733 333.878 264.694 333.936 264.668 334C264.642 334.064 264.629 334.133 264.63 334.202C264.63 334.271 264.645 334.339 264.673 334.403C264.7 334.466 264.74 334.524 264.79 334.571L265.699 335.48L264.791 336.389C264.696 336.487 264.643 336.618 264.644 336.755C264.645 336.891 264.7 337.022 264.796 337.118C264.893 337.215 265.024 337.27 265.16 337.271C265.297 337.272 265.428 337.219 265.526 337.124L266.433 336.215L267.342 337.123C267.39 337.173 267.447 337.213 267.51 337.24C267.574 337.268 267.642 337.282 267.711 337.283C267.78 337.283 267.849 337.27 267.913 337.244C267.977 337.218 268.035 337.179 268.084 337.13C268.133 337.082 268.171 337.023 268.197 336.959C268.224 336.895 268.237 336.827 268.236 336.758C268.235 336.689 268.221 336.62 268.194 336.557C268.166 336.493 268.127 336.436 268.077 336.388L267.17 335.481L268.078 334.573C268.173 334.475 268.225 334.343 268.224 334.207C268.223 334.07 268.169 333.94 268.072 333.843C267.976 333.747 267.845 333.692 267.708 333.691C267.572 333.689 267.44 333.742 267.342 333.837Z" fill="white"/>
</g>
<g clip-path="url(#clip5_189_1384)">
<path fill-rule="evenodd" clip-rule="evenodd" d="M213.01 333.837L212.101 334.745L211.192 333.836C211.144 333.786 211.087 333.746 211.023 333.719C210.96 333.692 210.891 333.677 210.822 333.676C210.753 333.676 210.684 333.689 210.62 333.715C210.556 333.741 210.498 333.78 210.449 333.829C210.401 333.878 210.362 333.936 210.336 334C210.31 334.064 210.297 334.133 210.298 334.202C210.298 334.271 210.313 334.339 210.34 334.403C210.368 334.466 210.408 334.524 210.458 334.571L211.367 335.48L210.458 336.389C210.364 336.487 210.311 336.618 210.312 336.755C210.313 336.891 210.368 337.022 210.464 337.118C210.561 337.215 210.691 337.27 210.828 337.271C210.964 337.272 211.096 337.219 211.194 337.124L212.101 336.215L213.009 337.123C213.057 337.173 213.115 337.213 213.178 337.24C213.242 337.268 213.31 337.282 213.379 337.283C213.448 337.283 213.517 337.27 213.581 337.244C213.645 337.218 213.703 337.179 213.752 337.13C213.801 337.082 213.839 337.023 213.865 336.959C213.891 336.895 213.905 336.827 213.904 336.758C213.903 336.689 213.889 336.62 213.862 336.557C213.834 336.493 213.794 336.436 213.745 336.388L212.838 335.481L213.746 334.573C213.841 334.475 213.893 334.343 213.892 334.207C213.891 334.07 213.836 333.94 213.74 333.843C213.643 333.747 213.513 333.692 213.376 333.691C213.24 333.689 213.108 333.742 213.01 333.837Z" fill="white"/>
</g>
<g clip-path="url(#clip6_189_1384)">
<path fill-rule="evenodd" clip-rule="evenodd" d="M188.527 333.837L187.618 334.745L186.709 333.836C186.661 333.786 186.603 333.746 186.54 333.719C186.476 333.692 186.408 333.677 186.339 333.676C186.27 333.676 186.201 333.689 186.137 333.715C186.073 333.741 186.015 333.78 185.966 333.829C185.917 333.878 185.879 333.936 185.853 334C185.827 334.064 185.814 334.133 185.814 334.202C185.815 334.271 185.83 334.339 185.857 334.403C185.885 334.466 185.925 334.524 185.975 334.571L186.883 335.48L185.975 336.389C185.88 336.487 185.828 336.618 185.829 336.755C185.83 336.891 185.885 337.022 185.981 337.118C186.078 337.215 186.208 337.27 186.345 337.271C186.481 337.272 186.613 337.219 186.711 337.124L187.618 336.215L188.526 337.123C188.574 337.173 188.632 337.213 188.695 337.24C188.759 337.268 188.827 337.282 188.896 337.283C188.965 337.283 189.034 337.27 189.098 337.244C189.162 337.218 189.22 337.179 189.269 337.13C189.317 337.082 189.356 337.023 189.382 336.959C189.408 336.895 189.421 336.827 189.421 336.758C189.42 336.689 189.406 336.62 189.378 336.557C189.351 336.493 189.311 336.436 189.261 336.388L188.355 335.481L189.263 334.573C189.358 334.475 189.41 334.343 189.409 334.207C189.408 334.07 189.353 333.94 189.257 333.843C189.16 333.747 189.03 333.692 188.893 333.691C188.757 333.689 188.625 333.742 188.527 333.837Z" fill="white"/>
</g>
<g clip-path="url(#clip7_189_1384)">
<path fill-rule="evenodd" clip-rule="evenodd" d="M201.942 346.581L201.033 347.49L200.124 346.581C200.076 346.531 200.019 346.491 199.955 346.464C199.892 346.436 199.824 346.422 199.754 346.421C199.685 346.42 199.617 346.434 199.553 346.46C199.489 346.486 199.431 346.525 199.382 346.573C199.333 346.622 199.294 346.681 199.268 346.745C199.242 346.809 199.229 346.877 199.23 346.946C199.231 347.016 199.245 347.084 199.273 347.147C199.3 347.211 199.34 347.268 199.39 347.316L200.299 348.225L199.391 349.133C199.296 349.231 199.243 349.363 199.244 349.499C199.245 349.636 199.3 349.766 199.397 349.863C199.493 349.959 199.624 350.014 199.76 350.015C199.897 350.016 200.028 349.964 200.126 349.869L201.033 348.959L201.942 349.868C201.99 349.918 202.047 349.958 202.11 349.985C202.174 350.012 202.242 350.027 202.311 350.027C202.38 350.028 202.449 350.015 202.513 349.989C202.577 349.963 202.635 349.924 202.684 349.875C202.733 349.826 202.771 349.768 202.798 349.704C202.824 349.64 202.837 349.572 202.836 349.502C202.836 349.433 202.821 349.365 202.794 349.302C202.766 349.238 202.727 349.181 202.677 349.133L201.77 348.225L202.678 347.317C202.773 347.219 202.825 347.088 202.824 346.951C202.823 346.815 202.769 346.684 202.672 346.588C202.576 346.491 202.445 346.436 202.309 346.435C202.172 346.434 202.041 346.487 201.942 346.581Z" fill="white"/>
</g>
<g clip-path="url(#clip8_189_1384)">
<path fill-rule="evenodd" clip-rule="evenodd" d="M227.767 346.581L226.858 347.49L225.949 346.581C225.901 346.531 225.843 346.491 225.78 346.464C225.716 346.436 225.648 346.422 225.579 346.421C225.51 346.42 225.441 346.434 225.377 346.46C225.313 346.486 225.255 346.525 225.206 346.573C225.157 346.622 225.119 346.681 225.093 346.745C225.067 346.809 225.054 346.877 225.054 346.946C225.055 347.016 225.07 347.084 225.097 347.147C225.125 347.211 225.165 347.268 225.215 347.316L226.123 348.225L225.215 349.133C225.12 349.231 225.068 349.363 225.069 349.499C225.07 349.636 225.125 349.766 225.221 349.863C225.318 349.959 225.448 350.014 225.585 350.015C225.721 350.016 225.853 349.964 225.951 349.869L226.858 348.959L227.766 349.868C227.814 349.918 227.872 349.958 227.935 349.985C227.999 350.012 228.067 350.027 228.136 350.027C228.205 350.028 228.274 350.015 228.338 349.989C228.402 349.963 228.46 349.924 228.509 349.875C228.557 349.826 228.596 349.768 228.622 349.704C228.648 349.64 228.661 349.572 228.661 349.502C228.66 349.433 228.646 349.365 228.618 349.302C228.591 349.238 228.551 349.181 228.501 349.133L227.595 348.225L228.503 347.317C228.597 347.219 228.65 347.088 228.649 346.951C228.648 346.815 228.593 346.684 228.497 346.588C228.4 346.491 228.27 346.436 228.133 346.435C227.997 346.434 227.865 346.487 227.767 346.581Z" fill="white"/>
</g>
<g clip-path="url(#clip9_189_1384)">
<path fill-rule="evenodd" clip-rule="evenodd" d="M267.342 346.581L266.433 347.49L265.524 346.581C265.476 346.531 265.419 346.491 265.355 346.464C265.292 346.436 265.223 346.422 265.154 346.421C265.085 346.42 265.017 346.434 264.953 346.46C264.889 346.486 264.83 346.525 264.782 346.573C264.733 346.622 264.694 346.681 264.668 346.745C264.642 346.809 264.629 346.877 264.63 346.946C264.63 347.016 264.645 347.084 264.673 347.147C264.7 347.211 264.74 347.268 264.79 347.316L265.699 348.225L264.791 349.133C264.696 349.231 264.643 349.363 264.644 349.499C264.645 349.636 264.7 349.766 264.796 349.863C264.893 349.959 265.024 350.014 265.16 350.015C265.297 350.016 265.428 349.964 265.526 349.869L266.433 348.959L267.342 349.868C267.39 349.918 267.447 349.958 267.51 349.985C267.574 350.012 267.642 350.027 267.711 350.027C267.78 350.028 267.849 350.015 267.913 349.989C267.977 349.963 268.035 349.924 268.084 349.875C268.133 349.826 268.171 349.768 268.197 349.704C268.224 349.64 268.237 349.572 268.236 349.502C268.235 349.433 268.221 349.365 268.194 349.302C268.166 349.238 268.127 349.181 268.077 349.133L267.17 348.225L268.078 347.317C268.173 347.219 268.225 347.088 268.224 346.951C268.223 346.815 268.169 346.684 268.072 346.588C267.976 346.491 267.845 346.436 267.708 346.435C267.572 346.434 267.44 346.487 267.342 346.581Z" fill="white"/>
</g>
</g>
<path d="M330 140.333C328.527 140.333 327.333 141.527 327.333 143C327.333 144.473 328.527 145.667 330 145.667C331.473 145.667 332.667 144.473 332.667 143C332.667 141.527 331.473 140.333 330 140.333ZM330 190.333C328.527 190.333 327.333 191.527 327.333 193C327.333 194.473 328.527 195.667 330 195.667C331.473 195.667 332.667 194.473 332.667 193C332.667 191.527 331.473 190.333 330 190.333ZM330 143L329.5 143L329.5 144.562L330 144.562L330.5 144.563L330.5 143L330 143ZM330 147.688L329.5 147.687L329.5 150.812L330 150.812L330.5 150.813L330.5 147.688L330 147.688ZM330 153.938L329.5 153.937L329.5 157.062L330 157.062L330.5 157.063L330.5 153.938L330 153.938ZM330 160.188L329.5 160.187L329.5 163.312L330 163.312L330.5 163.313L330.5 160.188L330 160.188ZM330 166.438L329.5 166.437L329.5 169.562L330 169.562L330.5 169.563L330.5 166.438L330 166.438ZM330 172.688L329.5 172.687L329.5 175.812L330 175.812L330.5 175.813L330.5 172.688L330 172.688ZM330 178.938L329.5 178.937L329.5 182.062L330 182.062L330.5 182.063L330.5 178.938L330 178.938ZM330 185.188L329.5 185.187L329.5 188.312L330 188.312L330.5 188.313L330.5 185.188L330 185.188ZM330 191.438L329.5 191.437L329.5 193L330 193L330.5 193L330.5 191.438L330 191.438Z" fill="#FFE1DC"/>
<path d="M177.333 64C177.333 65.4728 178.527 66.6667 180 66.6667C181.473 66.6667 182.667 65.4728 182.667 64C182.667 62.5272 181.473 61.3333 180 61.3333C178.527 61.3333 177.333 62.5272 177.333 64ZM180 37V36.5H179.5V37H180ZM200.333 37C200.333 38.4728 201.527 39.6667 203 39.6667C204.473 39.6667 205.667 38.4728 205.667 37C205.667 35.5272 204.473 34.3333 203 34.3333C201.527 34.3333 200.333 35.5272 200.333 37ZM180 64H180.5V62.65H180H179.5V64H180ZM180 59.95H180.5V57.25H180H179.5V59.95H180ZM180 54.55H180.5V51.85H180H179.5V54.55H180ZM180 49.15H180.5V46.45H180H179.5V49.15H180ZM180 43.75H180.5V41.05H180H179.5V43.75H180ZM180 38.35H180.5V37H180H179.5V38.35H180ZM180 37V37.5H181.438V37V36.5H180V37ZM184.312 37V37.5H187.188V37V36.5H184.312V37ZM190.062 37V37.5H192.938V37V36.5H190.062V37ZM195.812 37V37.5H198.688V37V36.5H195.812V37ZM201.562 37V37.5H203V37V36.5H201.562V37Z" fill="#FFE1DC"/>
<path d="M174.333 205C174.333 206.473 175.527 207.667 177 207.667C178.473 207.667 179.667 206.473 179.667 205C179.667 203.527 178.473 202.333 177 202.333C175.527 202.333 174.333 203.527 174.333 205ZM177 267H176.5V267.5H177V267ZM190.333 267C190.333 268.473 191.527 269.667 193 269.667C194.473 269.667 195.667 268.473 195.667 267C195.667 265.527 194.473 264.333 193 264.333C191.527 264.333 190.333 265.527 190.333 267ZM177 205H176.5V206.55H177H177.5V205H177ZM177 209.65H176.5V212.75H177H177.5V209.65H177ZM177 215.85H176.5V218.95H177H177.5V215.85H177ZM177 222.05H176.5V225.15H177H177.5V222.05H177ZM177 228.25H176.5V231.35H177H177.5V228.25H177ZM177 234.45H176.5V237.55H177H177.5V234.45H177ZM177 240.65H176.5V243.75H177H177.5V240.65H177ZM177 246.85H176.5V249.95H177H177.5V246.85H177ZM177 253.05H176.5V256.15H177H177.5V253.05H177ZM177 259.25H176.5V262.35H177H177.5V259.25H177ZM177 265.45H176.5V267H177H177.5V265.45H177ZM177 267V267.5H178.333V267V266.5H177V267ZM181 267V267.5H183.667V267V266.5H181V267ZM186.333 267V267.5H189V267V266.5H186.333V267ZM191.667 267V267.5H193V267V266.5H191.667V267Z" fill="#FFE1DC"/>
<rect x="282" y="164" width="16" height="16" rx="3.04762" fill="#ED4C4B"/>
<path d="M295.207 168.516C295.699 169.008 295.699 169.802 295.207 170.293L289.877 175.649C289.385 176.141 288.591 176.141 288.087 175.649L285.416 172.965C285.18 172.729 285.048 172.41 285.048 172.076C285.048 171.911 285.08 171.748 285.143 171.596C285.206 171.443 285.299 171.305 285.416 171.188C285.532 171.071 285.671 170.979 285.823 170.916C285.976 170.853 286.139 170.82 286.304 170.82C286.637 170.82 286.957 170.952 287.192 171.188L288.982 172.978L293.443 168.516C293.922 168.038 294.728 168.038 295.207 168.516Z" fill="white"/>
<path d="M172.606 139H191.381L182.001 123L172.606 139Z" fill="url(#paint0_linear_189_1384)"/>
<path d="M191.381 139L200.775 123L191.381 107H172.606L191.381 139Z" fill="#FF290C"/>
</g>
<defs>
<linearGradient id="paint0_linear_189_1384" x1="179.296" y1="138.271" x2="191.918" y2="125.448" gradientUnits="userSpaceOnUse">
<stop stop-color="#FF290C"/>
<stop offset="1" stop-color="#790002"/>
</linearGradient>
<clipPath id="clip0_189_1384">
<rect width="357" height="369" fill="white"/>
</clipPath>
<clipPath id="clip1_189_1384">
<rect width="9.12442" height="9.12442" fill="white" transform="translate(214.115 264.18) rotate(-90)"/>
</clipPath>
<clipPath id="clip2_189_1384">
<rect width="9.12442" height="9.12442" fill="white" transform="translate(214.115 280.147) rotate(-90)"/>
</clipPath>
<clipPath id="clip3_189_1384">
<rect x="162" y="76" width="30" height="14.8571" rx="7.42857" fill="white"/>
</clipPath>
<clipPath id="clip4_189_1384">
<rect width="5.03077" height="5.03077" fill="white" transform="translate(263.954 332.945)"/>
</clipPath>
<clipPath id="clip5_189_1384">
<rect width="5.03077" height="5.03077" fill="white" transform="translate(209.622 332.945)"/>
</clipPath>
<clipPath id="clip6_189_1384">
<rect width="5.03077" height="5.03077" fill="white" transform="translate(185.138 332.945)"/>
</clipPath>
<clipPath id="clip7_189_1384">
<rect width="5.03077" height="5.03077" fill="white" transform="translate(198.554 345.689)"/>
</clipPath>
<clipPath id="clip8_189_1384">
<rect width="5.03077" height="5.03077" fill="white" transform="translate(224.378 345.689)"/>
</clipPath>
<clipPath id="clip9_189_1384">
<rect width="5.03077" height="5.03077" fill="white" transform="translate(263.954 345.689)"/>
</clipPath>
</defs>
</svg>
