<svg width="200" height="30" viewBox="0 0 200 30" fill="none" xmlns="http://www.w3.org/2000/svg">
<g clip-path="url(#clip0_199_2175)">
<path d="M0.499344 20.7442H7.91386L4.20941 14.3879L0.499344 20.7442Z" fill="url(#paint0_linear_199_2175)"/>
<path d="M7.91385 20.7441L11.6239 14.3879L7.91385 8.03168H0.499336L7.91385 20.7441Z" fill="#FF290C"/>
<path d="M22.1534 21.084C18.3953 21.084 15.2255 17.9902 15.2255 14.327C15.2255 10.6638 18.3953 7.58894 22.1534 7.58894C24.1273 7.58894 25.9305 8.42408 27.2021 9.77168L25.1712 11.5938C24.431 10.7207 23.3491 10.1323 22.1534 10.1323C19.9706 10.1323 18.1106 12.0683 18.1106 14.327C18.1106 16.6046 19.9706 18.5406 22.1534 18.5406C23.3491 18.5406 24.431 17.9522 25.1902 17.0791L27.2021 18.9012C25.9305 20.2298 24.1273 21.084 22.1534 21.084ZM35.3321 21.084C31.574 21.084 28.4043 17.9902 28.4043 14.327C28.4043 10.6638 31.574 7.58894 35.3321 7.58894C39.0902 7.58894 42.2599 10.6638 42.2599 14.327C42.2599 17.9902 39.0902 21.084 35.3321 21.084ZM35.3321 18.5406C37.5338 18.5406 39.3749 16.6046 39.3749 14.327C39.3749 12.0683 37.5338 10.1323 35.3321 10.1323C33.1494 10.1323 31.2893 12.0683 31.2893 14.327C31.2893 16.6046 33.1494 18.5406 35.3321 18.5406ZM44.2862 20.8562V7.8167H47.0763L53.3778 16.244V7.8167H56.1679V20.8562H53.3778L47.0763 12.4289V20.8562H44.2862ZM68.8957 10.3411H61.6642V13.1692H68.2124V15.6935H61.6642V20.8562H58.8551V7.8167H68.8957V10.3411ZM81.0179 10.3411H73.7864V12.9414H80.3346V15.4658H73.7864V18.3318H81.0179V20.8562H70.9773V7.8167H81.0179V10.3411ZM86.7177 20.8562V10.3411H82.6559V7.8167H93.5886V10.3411H89.5078V20.8562H86.7177ZM98.8399 20.8562V10.3411H94.7781V7.8167H105.711V10.3411H101.63V20.8562H98.8399ZM107.641 20.8562V7.8167H110.431V20.8562H107.641Z" fill="white"/>
<path d="M117.407 20.8562V7.8167H120.198L124.24 15.1811L128.264 7.8167H131.073V20.8562H128.264V12.7326L124.24 20.097L120.198 12.7326V20.8562H117.407ZM143.511 20.8562L142.6 18.6165H136.944L136.033 20.8562H132.901L138.197 7.8167H141.347L146.643 20.8562H143.511ZM137.836 16.4338H141.708L139.772 11.6887L137.836 16.4338ZM148.473 20.8562V7.8167H151.263L157.565 16.244V7.8167H160.355V20.8562H157.565L151.263 12.4289V20.8562H148.473ZM172.779 20.8562L171.868 18.6165H166.212L165.3 20.8562H162.169L167.464 7.8167H170.615L175.911 20.8562H172.779ZM167.104 16.4338H170.976L169.04 11.6887L167.104 16.4338ZM182.585 15.7125V13.5298H188.336V18.9012C187.045 20.2678 185.034 21.084 183.079 21.084C179.263 21.084 176.094 18.0281 176.094 14.327C176.094 10.6448 179.263 7.58894 183.079 7.58894C185.034 7.58894 187.045 8.4051 188.336 9.77168L186.305 11.5938C185.546 10.7017 184.274 10.1323 183.079 10.1323C180.839 10.1323 178.979 12.0493 178.979 14.327C178.979 16.6236 180.839 18.5406 183.079 18.5406C183.952 18.5406 184.863 18.2369 185.603 17.7244V15.7125H182.585ZM200.608 10.3411H193.376V12.9414H199.924V15.4658H193.376V18.3318H200.608V20.8562H190.567V7.8167H200.608V10.3411Z" fill="#C0C0C4"/>
</g>
<defs>
<linearGradient id="paint0_linear_199_2175" x1="3.14136" y1="20.4547" x2="8.15597" y2="15.3902" gradientUnits="userSpaceOnUse">
<stop stop-color="#FF290C"/>
<stop offset="1" stop-color="#790002"/>
</linearGradient>
<clipPath id="clip0_199_2175">
<rect width="200" height="30" fill="white"/>
</clipPath>
</defs>
</svg>
